<?xml version="1.0" encoding="utf-8"?>
<svg viewBox="0 0 500 500" xmlns="http://www.w3.org/2000/svg">
  <path style="fill: rgb(216, 216, 216); stroke: rgb(0, 0, 0); fill-opacity: 0;" d="M 214.944 70.68 C 214.944 96.107 225.536 119.906 227.042 145.378 C 228.038 162.235 224.782 180.234 227.042 196.963 C 229.462 214.882 228.602 233.519 228.602 251.851"/>
  <path style="fill: rgb(216, 216, 216); stroke: rgb(0, 0, 0); fill-opacity: 0;" d="M 333.969 62.014 C 333.969 65.006 334.245 61.3 331.628 65.728 C 329.591 69.175 328.576 73.19 326.945 76.871 C 322.569 86.743 321.808 97.867 316.799 107.41 C 305.268 129.379 289.192 253.155 301.579 268.359"/>
  <path style="fill: rgb(216, 216, 216); stroke: rgb(0, 0, 0); fill-opacity: 0;" d="M 266.457 83.474 C 271.173 83.474 269.188 88.646 269.188 92.966 C 269.188 103.008 269.188 113.05 269.188 123.092 C 269.188 132.111 268.339 141.761 269.188 150.742 C 269.693 156.074 271.374 161.995 270.359 168.075 C 268.356 180.08 267.398 192.189 266.066 204.392 C 263.946 223.827 254.359 242.232 254.359 261.756"/>
  <path style="fill: rgb(216, 216, 216); stroke: rgb(0, 0, 0); fill-opacity: 0;" d="M 384.312 90.49 C 381.664 103.093 381.524 116.666 377.678 128.87 C 370.558 151.458 364.997 175.845 360.116 199.439 C 358.067 209.346 359.836 219.939 359.336 229.979 C 358.859 239.565 357.775 248.89 357.775 258.454"/>
  <path style="fill: rgb(216, 216, 216); stroke: rgb(0, 0, 0); fill-opacity: 0;" d="M 278.944 64.903 C 282.861 64.903 283.078 75.862 283.627 79.347 C 284.762 86.546 288.587 92.665 291.043 99.156 C 293.022 104.388 293.426 110.402 295.726 116.076 C 300.136 126.959 302.742 138.756 307.433 149.917 C 313.026 163.225 321.723 174.903 326.945 188.71 C 329.152 194.544 332.514 200.296 333.969 206.455 C 334.971 210.689 335.922 216.705 337.872 220.487 C 340.376 225.342 344.251 230.311 346.458 235.757 C 351.578 248.39 353.482 263.319 353.482 277.025"/>
  <path style="fill: rgb(216, 216, 216); stroke: rgb(0, 0, 0); fill-opacity: 0;" d="M 248.115 87.188 C 247.942 87.005 246.242 94.338 246.164 94.616 C 244.987 98.763 243.238 102.537 241.871 106.584 C 238.551 116.415 233.903 124.571 228.212 132.997 C 225.149 137.532 224.439 143.269 221.188 147.854 C 213.836 158.219 199.743 174.398 191.529 184.17 C 187.321 189.176 172.244 230.533 170.846 242.359 C 170.102 248.655 170.846 255.845 170.846 262.168"/>
  <ellipse style="fill: rgb(216, 216, 216); stroke: rgb(0, 0, 0);" cx="216.14" cy="71.608" rx="5.079" ry="5.643"/>
  <ellipse style="fill: rgb(216, 216, 216); stroke: rgb(0, 0, 0);" cx="247.461" cy="85.434" rx="5.361" ry="5.926"/>
  <ellipse style="fill: rgb(216, 216, 216); stroke: rgb(0, 0, 0);" cx="267.212" cy="84.87" rx="5.361" ry="5.926"/>
  <ellipse style="fill: rgb(216, 216, 216); stroke: rgb(0, 0, 0);" cx="283.578" cy="69.633" rx="9.312" ry="9.312"/>
  <ellipse style="fill: rgb(216, 216, 216); stroke: rgb(0, 0, 0);" cx="337.472" cy="67.94" rx="10.158" ry="10.44"/>
  <ellipse style="fill: rgb(216, 216, 216); stroke: rgb(0, 0, 0);" cx="384.876" cy="92.488" rx="5.643" ry="5.643"/>
  <rect x="155.756" y="249.373" width="229.12" height="55.305" style="fill: rgb(216, 216, 216); stroke: rgb(0, 0, 0);"/>
</svg>